<mxfile host="app.diagrams.net" modified="2022-03-06T13:32:24.493Z" agent="5.0 (X11)" etag="igU9f_a0as1NahIBdfjs" compressed="false" version="16.5.6" type="github">
  <diagram id="QYLhOXVDbwKB6_qFkyPz" name="architecture">
    <mxGraphModel dx="1422" dy="788" grid="1" gridSize="10" guides="1" tooltips="1" connect="1" arrows="1" fold="1" page="1" pageScale="1" pageWidth="1169" pageHeight="827" math="0" shadow="0">
      <root>
        <mxCell id="0" />
        <mxCell id="1" parent="0" />
        <mxCell id="XBYY144TDSn2ukcRjJpU-6" value="Vertical Container" style="swimlane;rounded=0;sketch=1;fontSize=14;" vertex="1" parent="1">
          <mxGeometry x="80" y="100" width="660" height="300" as="geometry" />
        </mxCell>
        <mxCell id="XBYY144TDSn2ukcRjJpU-7" value="" style="rounded=1;whiteSpace=wrap;html=1;sketch=1;fontSize=14;" vertex="1" parent="XBYY144TDSn2ukcRjJpU-6">
          <mxGeometry x="80" y="60" width="120" height="60" as="geometry" />
        </mxCell>
      </root>
    </mxGraphModel>
  </diagram>
</mxfile>
